<?xml version="1.0" encoding="UTF-8"?><svg id="a" xmlns="http://www.w3.org/2000/svg" viewBox="0 0 729.3 419.94"><defs><style>.b{fill:#231f20;}</style></defs><g><path class="b" d="M16.8,210.74c1.6,9.9,7.3,16.8,16.1,21.9s12.6,3.3,12.6-3.1c0-7.1-3.7-12.4-16.8-23.4C7.9,188.64,2.7,176.94,2.7,165.04c0-15.4,9.9-19.9,28-9.5,20.3,11.7,28.3,28.9,29.4,42.4l-16.6-9.7c-.7-5.8-3.5-13.2-13.2-18.8-6.8-3.8-10.8-3.1-10.8,3.3s3.3,10.4,15.5,20.8c22.3,18.8,27.1,31.1,27.1,43.5,0,16.1-10.6,20.8-30.7,9.1S1.8,218.04,0,201.04l16.8,9.7h0Z"/><path class="b" d="M127,262.34l-36.6-21v22.3l38.4,22.1v15.5l-54.5-31.4v-87.7l54.1,31.3v15.5l-38.2-21.9v18.8l36.6,21,.2,15.5h0Z"/><path class="b" d="M207.6,271.94l-.5-.4c-3.7,15.7-11.1,40.6-18.5,63.8l-14.1-8c-5.5-27.2-13.5-65.1-16.8-84.4l-.5-.4c.7,10.6,.9,28.9,.9,43.9v31.4l-15-8.8v-87.7l24.7,14.3c6,26.3,12.6,58.9,15,73.3h.2c1.8-10.4,10.2-36.4,16.6-55l23.8,13.7v87.7l-15.9-9.1s-.2-64.6,.1-74.3Z"/></g><g><path class="b" d="M310.9,243.44l-.5,.4c-3.7,19.9-11.1,53.6-18.5,85.2l-14.1,8c-5.5-20.8-13.5-49.5-16.8-65.1l-.5,.4c.7,9.9,.9,27.8,.9,42.8v31.4l-15,8.8v-87.7l24.7-14.3c6,19.4,12.6,44.4,15,56.1h.2c1.8-12.6,10.2-48.3,16.6-74.4l23.8-13.7v87.7l-16,9.2s-.2-64.5,.2-74.8Z"/><path class="b" d="M397.2,230.54l-36.6,21v22.3l38.4-22.1v15.5l-54.5,31.4v-87.7l54.1-31.3v15.6l-38.2,21.9v18.8l36.6-21v15.5h.2v.1Z"/><path class="b" d="M412.7,171.64l16.5-9.5v72.2l36.2-20.8v15.5l-52.7,30.3v-87.7h0Z"/><path class="b" d="M478.5,221.34l-19.4-76.4,17.5-10.2c7.1,36.2,10.4,52.1,11.3,61.2h.2c2.9-17.7,10.2-52.6,14.8-76.2l14.8-8.6c3.8,14.6,11.7,44.1,14.1,58.7h.2c2.6-20.8,10.1-59,12.8-74.2l16.1-9.3-20.7,99.6-17.2,9.9c-4-17.2-10.8-41.5-13.5-55h-.2c-2.7,17.2-9.7,50.6-13.7,70.7l-17.1,9.8h0Z"/><path class="b" d="M623.1,99.94l-36.6,21v22.3l38.4-22.1v15.5l-54.5,31.4V80.34l54.1-31.3v15.5l-38.2,22.1v18.8l36.6-21v15.4h.2v.1Z"/><path class="b" d="M655.1,31.64V119.34l-16.5,9.5V41.14l16.5-9.5Z"/><path class="b" d="M684,76.94c1.8,7.9,7.3,8.4,16.1,3.5s12.6-11.3,12.6-17.7c0-7.1-3.7-8-16.8-4-20.8,6.4-26,.7-26-11.1,0-15.4,10.1-31.4,28-41.9,20.3-11.7,28.3-3.8,29.4,8.4l-16.6,9.7c-.7-4.9-3.5-9.3-13.2-3.7-6.8,3.8-10.8,9.3-10.8,15.5s3.3,6.8,15.5,2.9c22.3-6.8,27.1-.2,27.1,12.2,0,16.1-10.6,33.1-30.7,44.8-20.1,11.7-29.6,6.2-31.4-8.8l16.8-9.8h0Z"/></g><g><path class="b" d="M257.9,375.64l16.3-9.5,33.8,19.6c-.9-6.2-2.2-25.2-3.5-37.1l19.7-11.3,.9,36,76.2,7.3-19.7,11.5-57.2-5.8-.4,9.1,26.1,15-16.3,9.5-75.9-44.3h0Z"/><path class="b" d="M333.6,331.94l16.5-9.5,62.5,36,36.2-20.8,13.5,7.7-52.6,30.3-76.1-43.7h0Z"/><path class="b" d="M414.2,285.54l75.9,43.9-16.5,9.5-75.9-43.9,16.5-9.5Z"/><path class="b" d="M510.5,317.54l-75.8-43.9,20.5-11.9c26.5,4.4,74.9,11.9,86.8,14.6l.2-.2c-8.8-4-21.9-11.7-34.4-18.8l-22.5-13,15-8.6,75.9,43.9-19.4,11.1c-23-3.8-77.9-13-90.5-15.7l-.2,.2c7.1,3.5,23,12.4,36.6,20.3l23,13.3-15.2,8.7h0Z"/><path class="b" d="M537,214.44l75.9,43.9-16.5,9.5-75.9-43.9,16.5-9.5Z"/><path class="b" d="M557.5,202.74l16.3-9.5,33.8,19.6c-.9-6.2-2.2-25.2-3.5-37.1l19.7-11.3,.9,36,76.2,7.3-19.7,11.5-57.2-5.8-.4,9.1,26.1,15-16.3,9.5-75.9-44.3h0Z"/></g></svg>